# xmcd CD database file
#
# Track frame offsets:
#	182
#	10775
#	23082
#	35652
#	49135
#	61242
#	75042
#	87752
#	98217
#	109717
#	118997
#	132547
#
# Disc length: 1927 seconds
#
# Revision: 4
# Processed by: cddbd v1.5.2PL0 Copyright (c) Steve Scherf et al.
# Submitted via: CDex 1.51
#
DISCID=9007850c
DTITLE=Various Artist - The best of Chess R&B Vol. 1
DYEAR=1988
DGENRE=Blues
TTITLE0=Please send me someone to love (The Moonglows)
TTITLE1=Bad Girl (The Miracles)
TTITLE2=The walk (Jimmy McCracklin
TTITLE3=Smokey Places (The Corsairs)
TTITLE4=The Watusi (The Vibrations)
TTITLE5=I want to know (Sugar Pie DeSanto)
TTITLE6=Something's got a hold on me (Etta James)
TTITLE7=(I don't know why) But I do (Clarence "Frogman" Henry)
TTITLE8=Searching for my love (Bobby Moore and the Rhythm Aces)
TTITLE9=Mama didn't lie (Jan Bradley)
TTITLE10=I do love you (Billy Stewart)
TTITLE11=We're gonna make it (Little Milton)
EXTD=YEAR: 1988
EXTT0=
EXTT1=
EXTT2=
EXTT3=
EXTT4=
EXTT5=
EXTT6=
EXTT7=
EXTT8=
EXTT9=
EXTT10=
EXTT11=
PLAYORDER=
